# File created by Blade
# Date/Time:  Tue Jan 27 19:58:39 2015
#---------------------------------------------------------
:version 1.10
:name HOM
:units
  mass 1.0
  length 1.000000
  angle deg
:documentation
     Acclaim Skeleton File
:root
   axis xyz
   order TX TY TZ RX RY RZ
   position 0.000000 0.000000 0.000000
   orientation 0 0 0
:bonedata
   begin
      id 1
      name Spine_dum
      direction 0.000000 1.000000 0.000000
      length 6.116652
      axis 0.0 0.0 0.0 xyz
   end
   begin
      id 2
      name LeftUpLeg_dum
      direction 1.000000 0.000000 0.000000
      length 4.711765
      axis 0.0 0.0 0.0 xyz
   end
   begin
      id 3
      name RightUpLeg_dum
      direction -1.000000 0.000000 0.000000
      length 4.711765
      axis 0.0 0.0 0.0 xyz
   end
   begin
      id 4
      name Spine
      direction 0.000000 1.000000 0.000000
      length 0.000000
      axis 0.0 0.0 0.0 xyz
      dof rx ry rz
   end
   begin
      id 5
      name Spine_dum1
      direction 0.000000 1.000000 0.000000
      length 15.225563
      axis 0.0 0.0 0.0 xyz
   end
   begin
      id 6
      name Spine_dum2
      direction 0.000000 1.000000 0.000000
      length 8.977654
      axis 0.0 0.0 0.0 xyz
   end
   begin
      id 7
      name Spine_dum3
      direction 0.000000 1.000000 0.000000
      length 8.977654
      axis 0.0 0.0 0.0 xyz
   end
   begin
      id 8
      name Head
      direction 0.000000 1.000000 0.000000
      length 4.527550
      axis 0.0 0.0 0.0 xyz
      dof rx ry rz
   end
   begin
      id 9
      name LeftShoulder
      direction 1.000000 0.000000 0.000000
      length 7.110130
      axis 0.0 0.0 -90.0 xyz
      dof rx ry rz
   end
   begin
      id 10
      name LeftArm
      direction 1.000000 0.000000 0.000000
      length 10.398341
      axis 0.0 0.0 -90.0 xyz
      dof rx ry rz
   end
   begin
      id 11
      name LeftForeArm
      direction 1.000000 0.000000 0.000000
      length 8.888997
      axis 0.0 0.0 -90.0 xyz
      dof ry rz rx
   end
   begin
      id 12
      name LeftHand
      direction 0.000000 0.000000 0.000000
      length 0.000000
      axis 0.0 0.0 -90.0 xyz
      dof rx ry rz
   end
   begin
      id 13
      name LeftHand_dum1
      direction 0.000000 0.000000 0.000000
      length 0.000000
      axis 0.0 0.0 -90.0 xyz
   end
   begin
      id 14
      name LeftHand_dum2
      direction 1.000000 0.000000 0.000000
      length 3.937000
      axis 0.0 0.0 -90.0 xyz
   end
   begin
      id 15
      name LeftHandThumb1
      direction 0.000000 0.000000 1.000000
      length 3.937000
      axis 0.0 0.0 -90.0 xyz
      dof rx rz ry
   end
   begin
      id 16
      name RightShoulder
      direction -1.000000 0.000000 0.000000
      length 7.110130
      axis 0.0 0.0 90.0 xyz
      dof rx ry rz
   end
   begin
      id 17
      name RightArm
      direction -1.000000 0.000000 0.000000
      length 10.398341
      axis 0.0 0.0 90.0 xyz
      dof rx ry rz
   end
   begin
      id 18
      name RightForeArm
      direction -1.000000 0.000000 0.000000
      length 8.888997
      axis 0.0 0.0 90.0 xyz
      dof ry rz rx
   end
   begin
      id 19
      name RightHand
      direction 0.000000 0.000000 0.000000
      length 0.000000
      axis 0.0 0.0 90.0 xyz
      dof rx ry rz
   end
   begin
      id 20
      name RightHand_dum1
      direction 0.000000 0.000000 0.000000
      length 0.000000
      axis 0.0 0.0 90.0 xyz
   end
   begin
      id 21
      name RightHand_dum2
      direction -1.000000 0.000000 0.000000
      length 3.937000
      axis 0.0 0.0 90.0 xyz
   end
   begin
      id 22
      name RightHandThumb1
      direction 0.000000 0.000000 1.000000
      length 3.937000
      axis 0.0 0.0 90.0 xyz
      dof rx rz ry
   end
   begin
      id 23
      name LeftUpLeg
      direction 0.000000 -1.000000 0.000000
      length 15.510451
      axis 0.0 0.0 0.0 xyz
      dof rx ry rz
   end
   begin
      id 24
      name LeftLeg
      direction 0.000000 -1.000000 0.000000
      length 14.858061
      axis 0.0 0.0 0.0 xyz
      dof rx ry rz
   end
   begin
      id 25
      name LeftFoot
      direction 0.000000 -0.258819 0.965926
      length 5.128852
      axis 15.0 0.0 0.0 xyz
      dof rx ry rz
   end
   begin
      id 26
      name LeftToeBase
      direction 0.000000 0.000000 1.000000
      length 2.952750
      axis 0.0 0.0 0.0 xyz
      dof rx ry rz
   end
   begin
      id 27
      name RightUpLeg
      direction 0.000000 -1.000000 0.000000
      length 15.510451
      axis 0.0 0.0 0.0 xyz
      dof rx ry rz
   end
   begin
      id 28
      name RightLeg
      direction 0.000000 -1.000000 0.000000
      length 14.858061
      axis 0.0 0.0 0.0 xyz
      dof rx ry rz
   end
   begin
      id 29
      name RightFoot
      direction 0.000000 -0.258819 0.965926
      length 5.128852
      axis 15.0 0.0 0.0 xyz
      dof rx ry rz
   end
   begin
      id 30
      name RightToeBase
      direction 0.000000 0.000000 1.000000
      length 2.952750
      axis 0.0 0.0 0.0 xyz
      dof rx ry rz
   end
:hierarchy
   begin
      root Spine_dum LeftUpLeg_dum RightUpLeg_dum
      Spine_dum Spine
      LeftUpLeg_dum LeftUpLeg
      RightUpLeg_dum RightUpLeg
      Spine Spine_dum1 Spine_dum2 Spine_dum3
      Spine_dum1 Head
      Spine_dum2 LeftShoulder
      Spine_dum3 RightShoulder
      LeftShoulder LeftArm
      LeftArm LeftForeArm
      LeftForeArm LeftHand
      LeftHand LeftHand_dum1 LeftHand_dum2
      LeftHand_dum1 LeftHandThumb1
      RightShoulder RightArm
      RightArm RightForeArm
      RightForeArm RightHand
      RightHand RightHand_dum1 RightHand_dum2
      RightHand_dum1 RightHandThumb1
      LeftUpLeg LeftLeg
      LeftLeg LeftFoot
      LeftFoot LeftToeBase
      RightUpLeg RightLeg
      RightLeg RightFoot
      RightFoot RightToeBase
   end

# File created by Blade
# Date/Time:  Tue Jan 27 19:58:31 2015
# Frame Rate: 120.000 fps
#------------------------------------------------------
:FULLY-SPECIFIED
:DEGREES
726
root 5.457078 32.933764 3.877037 -19.511877 30.510179 -11.298776
Spine 12.762261 -5.714020 2.636895
Head 7.092188 -21.199313 11.053512
LeftShoulder -13.977960 -1.699616 30.255745
LeftArm -5.859924 -4.281405 -84.542899
LeftForeArm 0.206592 -0.000000 114.540393
LeftHand 11.077323 0.000000 -0.289883
LeftHandThumb1 -26.253704 0.000000 33.147579
RightShoulder -25.536781 -21.556135 -18.891812
RightArm 3.734763 -20.597418 99.255146
RightForeArm -7.478811 0.000000 15.078516
RightHand 16.807354 -0.000000 9.042531
RightHandThumb1 -24.326973 -0.000000 -32.862282
LeftUpLeg 16.972045 2.234098 5.576468
LeftLeg 4.863848 -0.000000 -0.000000
LeftFoot -14.298896 -5.609734 -17.973760
LeftToeBase 28.547999 -0.000000 -0.000000
RightUpLeg -74.313186 11.489429 36.260197
RightLeg 108.382562 -0.000000 -0.000000
RightFoot 25.852217 -30.580395 24.541360
RightToeBase 8.583182 -0.000000 -0.000000
727
root 5.462439 32.951111 3.892202 -19.816875 30.778441 -11.573616
Spine 12.898299 -6.047846 2.755203
Head 7.109880 -21.228955 11.012320
LeftShoulder -13.957150 -1.704749 30.245240
LeftArm -5.887802 -4.288284 -84.570803
LeftForeArm 0.175425 -0.000000 114.508125
LeftHand 11.119902 -0.000000 -0.326125
LeftHandThumb1 -26.253704 0.000000 33.147579
RightShoulder -25.569422 -21.596390 -18.861585
RightArm 3.776669 -20.639482 99.227769
RightForeArm -7.455130 -0.000000 15.076469
RightHand 16.613526 0.000000 9.249300
RightHandThumb1 -24.326973 -0.000000 -32.862282
LeftUpLeg 17.064528 2.077430 5.780644
LeftLeg 4.900346 -0.000000 -0.000000
LeftFoot -14.286215 -5.758938 -18.101553
LeftToeBase 29.061722 -0.000000 -0.000000
RightUpLeg -74.564926 12.101389 34.434979
RightLeg 108.831486 -0.000000 -0.000000
RightFoot 25.868675 -30.488563 24.575938
RightToeBase 8.343119 -0.000000 -0.000000
728
root 5.467960 32.968732 3.907103 -20.105839 31.086321 -11.855224
Spine 12.997597 -6.404620 2.863228
Head 7.141783 -21.274024 10.991420
LeftShoulder -13.924197 -1.672253 30.239535
LeftArm -5.871791 -4.272694 -84.612069
LeftForeArm 0.172434 -0.000000 114.466657
LeftHand 11.153537 0.000000 -0.319408
LeftHandThumb1 -26.253704 0.000000 33.147579
RightShoulder -25.591615 -21.544308 -18.876250
RightArm 3.693306 -20.608722 99.242928
RightForeArm -7.490536 -0.000000 15.061388
RightHand 16.639277 -0.000000 9.346743
RightHandThumb1 -24.326973 -0.000000 -32.862282
LeftUpLeg 17.110891 1.876848 5.971313
LeftLeg 4.976604 -0.000000 -0.000000
LeftFoot -14.274263 -5.868965 -18.067697
LeftToeBase 29.015161 -0.000000 -0.000000
RightUpLeg -74.858774 12.711047 32.566441
RightLeg 109.321175 -0.000000 -0.000000
RightFoot 26.049910 -30.273401 24.069987
RightToeBase 8.204363 -0.000000 -0.000000
729
root 5.469877 32.988166 3.922184 -20.417869 31.418307 -12.186435
Spine 13.095708 -6.796150 2.994974
Head 7.178243 -21.312480 10.976783
LeftShoulder -13.893706 -1.719698 30.223048
LeftArm -5.913279 -4.270604 -84.629906
LeftForeArm 0.200514 0.000000 114.450092
LeftHand 11.111307 -0.000000 -0.436142
LeftHandThumb1 -26.253704 0.000000 33.147579
RightShoulder -25.603079 -21.482917 -18.884594
RightArm 3.591577 -20.547875 99.258746
RightForeArm -7.542443 0.000000 15.063544
RightHand 16.633574 -0.000000 9.346502
RightHandThumb1 -24.326973 -0.000000 -32.862282
LeftUpLeg 17.122892 1.680090 6.215290
LeftLeg 5.084546 -0.000000 -0.000000
LeftFoot -14.246459 -6.072066 -18.091155
LeftToeBase 29.169932 -0.000000 -0.000000
RightUpLeg -75.164314 13.284741 30.615742
RightLeg 109.808539 -0.000000 -0.000000
RightFoot 25.912469 -30.348308 24.474423
RightToeBase 8.254894 -0.000000 -0.000000
730
root 5.476400 33.008720 3.935368 -20.751163 31.744137 -12.512881
Spine 13.222578 -7.181532 3.139596
Head 7.209240 -21.325517 10.953927
LeftShoulder -13.852721 -1.712077 30.199811
LeftArm -5.898919 -4.227422 -84.655616
LeftForeArm 0.189610 -0.000000 114.396329
LeftHand 11.153394 -0.000000 -0.409731
LeftHandThumb1 -26.253704 0.000000 33.147579
RightShoulder -25.627895 -21.499884 -18.854723
RightArm 3.593794 -20.503776 99.226241
RightForeArm -7.553175 0.000000 15.067163
RightHand 16.637546 -0.000000 9.417536
RightHandThumb1 -24.326973 -0.000000 -32.862282
LeftUpLeg 17.135408 1.714615 6.536779
LeftLeg 5.249569 -0.000000 -0.000000
LeftFoot -14.120134 -6.523408 -17.943470
LeftToeBase 29.130479 -0.000000 -0.000000
RightUpLeg -75.449597 13.809584 28.707069
RightLeg 110.318009 -0.000000 -0.000000
RightFoot 26.256696 -30.180152 23.713474
RightToeBase 8.367070 -0.000000 -0.000000
731
root 5.481828 33.032971 3.957356 -21.157358 32.119246 -12.896930
Spine 13.375012 -7.624558 3.285135
Head 7.263934 -21.359710 10.963805
LeftShoulder -13.809297 -1.750755 30.190361
LeftArm -5.935547 -4.183065 -84.672760
LeftForeArm 0.202972 0.000000 114.332137
LeftHand 11.273391 -0.000000 -0.418360
LeftHandThumb1 -26.253704 0.000000 33.147579
RightShoulder -25.681603 -21.576869 -18.776259
RightArm 3.661286 -20.467450 99.166678
RightForeArm -7.564648 -0.000000 15.049908
RightHand 16.645084 0.000000 9.451743
RightHandThumb1 -24.326973 -0.000000 -32.862282
LeftUpLeg 17.196347 1.618318 6.870304
LeftLeg 5.361936 -0.000000 -0.000000
LeftFoot -14.032600 -6.891078 -17.955101
LeftToeBase 29.233451 -0.000000 -0.000000
RightUpLeg -75.678431 14.376060 26.740936
RightLeg 110.865571 -0.000000 -0.000000
RightFoot 25.939673 -30.317368 24.047552
RightToeBase 8.982948 -0.000000 -0.000000
732
root 5.486149 33.056934 3.972215 -21.523251 32.483084 -13.279550
Spine 13.496253 -8.030341 3.447643
Head 7.292708 -21.423707 10.989489
LeftShoulder -13.738441 -1.810820 30.167536
LeftArm -5.967462 -4.144696 -84.687676
LeftForeArm 0.193171 -0.000000 114.277756
LeftHand 11.323496 -0.000000 -0.443477
LeftHandThumb1 -26.253704 0.000000 33.147579
RightShoulder -25.762720 -21.681191 -18.658435
RightArm 3.777518 -20.406677 99.076481
RightForeArm -7.679259 -0.000000 15.025164
RightHand 16.650701 -0.000000 9.167892
RightHandThumb1 -24.326973 -0.000000 -32.862282
LeftUpLeg 17.213577 1.411192 7.144113
LeftLeg 5.474030 -0.000000 -0.000000
LeftFoot -13.966577 -7.103292 -17.802520
LeftToeBase 29.171041 -0.000000 -0.000000
RightUpLeg -75.944527 14.813595 24.827543
RightLeg 111.410421 -0.000000 -0.000000
RightFoot 26.111803 -30.334587 23.686632
RightToeBase 8.649052 -0.000000 -0.000000
733
root 5.492069 33.081029 3.985432 -21.907654 32.845683 -13.663157
Spine 13.643937 -8.429010 3.615569
Head 7.303960 -21.490927 11.012715
LeftShoulder -13.645073 -1.897219 30.140036
LeftArm -6.021325 -4.120353 -84.704998
LeftForeArm 0.221827 -0.000000 114.228876
LeftHand 11.414800 -0.000000 -0.437727
LeftHandThumb1 -26.253704 0.000000 33.147579
RightShoulder -25.873488 -21.766437 -18.548700
RightArm 3.894099 -20.384110 98.982200
RightForeArm -7.710846 -0.000000 14.987736
RightHand 16.631589 -0.000000 9.134447
RightHandThumb1 -24.326973 -0.000000 -32.862282
LeftUpLeg 17.248820 1.219844 7.412627
LeftLeg 5.556428 -0.000000 -0.000000
LeftFoot -13.911812 -7.314529 -17.865747
LeftToeBase 29.464932 -0.000000 -0.000000
RightUpLeg -76.171701 15.179655 22.989988
RightLeg 111.930197 -0.000000 -0.000000
RightFoot 26.014175 -30.425051 23.532440
RightToeBase 9.206246 -0.000000 -0.000000
734
root 5.500228 33.105460 3.997957 -22.313506 33.213513 -14.061988
Spine 13.808073 -8.865854 3.782304
Head 7.303971 -21.543146 11.052712
LeftShoulder -13.556766 -1.942859 30.107526
LeftArm -6.059454 -4.104396 -84.731730
LeftForeArm 0.218967 -0.000000 114.204393
LeftHand 11.466593 -0.000000 -0.433821
LeftHandThumb1 -26.253704 0.000000 33.147579
RightShoulder -25.943895 -21.750218 -18.501094
RightArm 3.919275 -20.217450 98.938257
RightForeArm -7.858000 0.000000 14.913741
RightHand 16.667734 -0.000000 9.217608
RightHandThumb1 -24.326973 -0.000000 -32.862282
LeftUpLeg 17.305548 0.986355 7.674375
LeftLeg 5.631072 -0.000000 -0.000000
LeftFoot -13.834488 -7.479010 -17.685861
LeftToeBase 29.319454 -0.000000 -0.000000
RightUpLeg -76.356783 15.497978 21.159632
RightLeg 112.501760 -0.000000 -0.000000
RightFoot 26.165754 -30.170338 22.966586
RightToeBase 8.673703 -0.000000 -0.000000
735
root 5.508423 33.132643 4.014382 -22.733732 33.557924 -14.491042
Spine 13.937462 -9.323910 3.980799
Head 7.385538 -21.581004 11.032934
LeftShoulder -13.488161 -1.979219 30.053865
LeftArm -6.103836 -4.069429 -84.740263
LeftForeArm 0.272362 -0.000000 114.166948
LeftHand 11.463876 -0.000000 -0.375090
LeftHandThumb1 -26.253704 0.000000 33.147579
RightShoulder -25.977683 -21.668093 -18.513126
RightArm 3.829697 -20.299965 98.878039
RightForeArm -7.768725 -0.000000 14.928989
RightHand 16.664212 -0.000000 9.182453
RightHandThumb1 -24.326973 -0.000000 -32.862282
LeftUpLeg 17.379565 0.824954 7.995573
LeftLeg 5.657195 -0.000000 -0.000000
LeftFoot -13.756731 -7.733438 -17.719495
LeftToeBase 29.547414 -0.000000 -0.000000
RightUpLeg -76.512574 15.770948 19.421614
RightLeg 113.048978 -0.000000 -0.000000
RightFoot 26.070923 -30.081362 22.833311
RightToeBase 8.762690 -0.000000 -0.000000
736
root 5.514319 33.159542 4.028398 -23.173271 33.890659 -14.928494
Spine 14.103822 -9.783842 4.165997
Head 7.439090 -21.625730 11.035932
LeftShoulder -13.423989 -2.020468 30.017175
LeftArm -6.135790 -4.049617 -84.757661
LeftForeArm 0.271832 -0.000000 114.117708
LeftHand 11.508765 -0.000000 -0.385428
LeftHandThumb1 -26.253704 0.000000 33.147579
RightShoulder -26.004233 -21.569298 -18.535174
RightArm 3.746600 -20.396550 98.842587
RightForeArm -7.695769 -0.000000 14.918187
RightHand 16.693550 -0.000000 9.043249
RightHandThumb1 -24.326973 -0.000000 -32.862282
LeftUpLeg 17.426723 0.825055 8.380226
LeftLeg 5.755488 -0.000000 -0.000000
LeftFoot -13.636479 -8.131939 -17.604219
LeftToeBase 29.645886 -0.000000 -0.000000
RightUpLeg -76.620208 15.991499 17.802091
RightLeg 113.585580 -0.000000 -0.000000
RightFoot 25.689718 -30.157759 22.998609
RightToeBase 9.927345 -0.000000 -0.000000
737
root 5.520099 33.186192 4.039625 -23.550074 34.185372 -15.335711
Spine 14.205653 -10.187120 4.360771
Head 7.515622 -21.683212 11.004823
LeftShoulder -13.341289 -2.080735 29.964716
LeftArm -6.187827 -4.024195 -84.765702
LeftForeArm 0.242185 -0.000000 114.065090
LeftHand 11.518344 -0.000000 -0.405620
LeftHandThumb1 -26.253704 0.000000 33.147579
RightShoulder -26.089838 -21.632374 -18.478934
RightArm 3.811163 -20.385220 98.755557
RightForeArm -7.711079 -0.000000 14.926068
RightHand 16.807451 -0.000000 8.832954
RightHandThumb1 -24.326973 -0.000000 -32.862282
LeftUpLeg 17.472734 0.736395 8.703028
LeftLeg 5.778557 -0.000000 -0.000000
LeftFoot -13.493645 -8.391567 -17.472156
LeftToeBase 29.539108 -0.000000 -0.000000
RightUpLeg -76.711047 16.128570 16.299595
RightLeg 114.041812 -0.000000 -0.000000
RightFoot 26.167453 -29.913862 22.042183
RightToeBase 8.349240 -0.000000 -0.000000
